<svg width="24" height="24" viewBox="0 0 24 24" fill="none" xmlns="http://www.w3.org/2000/svg">
<path d="M12 0.333344C15.1699 0.333344 15.5654 0.34501 16.809 0.403343C18.0515 0.461677 18.8974 0.65651 19.6417 0.945844C20.4117 1.24218 21.0604 1.64351 21.709 2.29101C22.3023 2.87422 22.7613 3.5797 23.0542 4.35834C23.3424 5.10151 23.5384 5.94851 23.5967 7.19101C23.6515 8.43468 23.6667 8.83018 23.6667 12C23.6667 15.1698 23.655 15.5653 23.5967 16.809C23.5384 18.0515 23.3424 18.8973 23.0542 19.6417C22.7622 20.4207 22.303 21.1264 21.709 21.709C21.1257 22.3021 20.4202 22.7611 19.6417 23.0542C18.8985 23.3423 18.0515 23.5383 16.809 23.5967C15.5654 23.6515 15.1699 23.6667 12 23.6667C8.83021 23.6667 8.43471 23.655 7.19104 23.5967C5.94854 23.5383 5.10271 23.3423 4.35837 23.0542C3.57942 22.7619 2.87382 22.3028 2.29104 21.709C1.69768 21.1259 1.23863 20.4204 0.945874 19.6417C0.656541 18.8985 0.461707 18.0515 0.403374 16.809C0.348541 15.5653 0.333374 15.1698 0.333374 12C0.333374 8.83018 0.345041 8.43468 0.403374 7.19101C0.461707 5.94734 0.656541 5.10268 0.945874 4.35834C1.23782 3.57922 1.69698 2.87355 2.29104 2.29101C2.87399 1.69745 3.57954 1.23836 4.35837 0.945844C5.10271 0.65651 5.94737 0.461677 7.19104 0.403343C8.43471 0.34851 8.83021 0.333344 12 0.333344ZM12 6.16668C10.4529 6.16668 8.96921 6.78126 7.87525 7.87522C6.78129 8.96918 6.16671 10.4529 6.16671 12C6.16671 13.5471 6.78129 15.0308 7.87525 16.1248C8.96921 17.2188 10.4529 17.8333 12 17.8333C13.5471 17.8333 15.0309 17.2188 16.1248 16.1248C17.2188 15.0308 17.8334 13.5471 17.8334 12C17.8334 10.4529 17.2188 8.96918 16.1248 7.87522C15.0309 6.78126 13.5471 6.16668 12 6.16668ZM19.5834 5.87501C19.5834 5.48824 19.4297 5.1173 19.1562 4.84381C18.8827 4.57032 18.5118 4.41668 18.125 4.41668C17.7383 4.41668 17.3673 4.57032 17.0938 4.84381C16.8204 5.1173 16.6667 5.48824 16.6667 5.87501C16.6667 6.26178 16.8204 6.63272 17.0938 6.90621C17.3673 7.1797 17.7383 7.33334 18.125 7.33334C18.5118 7.33334 18.8827 7.1797 19.1562 6.90621C19.4297 6.63272 19.5834 6.26178 19.5834 5.87501ZM12 8.50001C12.9283 8.50001 13.8185 8.86876 14.4749 9.52514C15.1313 10.1815 15.5 11.0718 15.5 12C15.5 12.9283 15.1313 13.8185 14.4749 14.4749C13.8185 15.1313 12.9283 15.5 12 15.5C11.0718 15.5 10.1815 15.1313 9.52517 14.4749C8.86879 13.8185 8.50004 12.9283 8.50004 12C8.50004 11.0718 8.86879 10.1815 9.52517 9.52514C10.1815 8.86876 11.0718 8.50001 12 8.50001Z" fill="#131212"/>
</svg>
