<svg width="19" height="18" viewBox="0 0 19 18" fill="none" xmlns="http://www.w3.org/2000/svg">
<path d="M0 17.1429H1.89412C2.415 17.1429 2.84118 16.7143 2.84118 16.1905V7.61905C2.84118 7.09524 2.415 6.66667 1.89412 6.66667H0V17.1429ZM18.7802 10.3619C18.8844 10.1238 18.9412 9.86667 18.9412 9.6V8.57143C18.9412 7.52381 18.0888 6.66667 17.0471 6.66667H11.8382L12.7095 2.2381C12.7569 2.02857 12.7285 1.8 12.6338 1.60952C12.4159 1.18095 12.1413 0.790476 11.8004 0.447619L11.3647 0L5.29406 6.10476C4.93418 6.46667 4.73529 6.95238 4.73529 7.45714V14.9238C4.73529 16.1429 5.72971 17.1429 6.95141 17.1429H14.6321C15.295 17.1429 15.9201 16.7905 16.261 16.219L18.7802 10.3619Z" fill="black"/>
</svg>
