<svg width="24" height="20" viewBox="0 0 24 20" fill="none" xmlns="http://www.w3.org/2000/svg">
<path d="M23.8557 2.59867C22.965 2.99265 22.0205 3.25139 21.0534 3.36634C22.0728 2.75668 22.8357 1.79719 23.2001 0.666673C22.2434 1.23601 21.1946 1.63501 20.1014 1.85084C19.3671 1.06518 18.3938 0.54413 17.3328 0.368688C16.2719 0.193247 15.1827 0.373245 14.2345 0.880701C13.2864 1.38816 12.5325 2.19464 12.09 3.17476C11.6475 4.15489 11.5413 5.25375 11.7877 6.30051C9.84769 6.20327 7.94978 5.69912 6.21723 4.82078C4.48468 3.94245 2.95621 2.70956 1.73106 1.20217C1.2974 1.94703 1.06951 2.79377 1.07073 3.65567C1.07073 5.34734 1.93173 6.84184 3.24073 7.71684C2.46607 7.69245 1.70847 7.48325 1.03106 7.10667V7.16734C1.0313 8.29399 1.42116 9.38589 2.13455 10.2579C2.84794 11.1299 3.84096 11.7284 4.94523 11.9518C4.22611 12.1467 3.47209 12.1754 2.74023 12.0358C3.05157 13.0056 3.6584 13.8537 4.47575 14.4615C5.2931 15.0692 6.28004 15.4061 7.29839 15.425C6.28629 16.2199 5.12743 16.8075 3.88809 17.1542C2.64874 17.5009 1.35321 17.6 0.0755615 17.4457C2.30588 18.88 4.90217 19.6415 7.55389 19.639C16.5291 19.639 21.4372 12.2038 21.4372 5.75567C21.4372 5.54567 21.4314 5.33334 21.4221 5.12567C22.3774 4.4352 23.2019 3.57986 23.8569 2.59984L23.8557 2.59867Z" fill="#131212"/>
</svg>
